
<svg version="1.1"  xmlns="http://www.w3.org/2000/svg" x="0px" y="0px" width="24px" height="24px" viewBox="0 0 24 24"  >
<g>
	<path d="M12,19.4c-6.9,0-10.1-6.7-10.3-6.9c-0.1-0.3-0.1-0.6,0-0.9C1.9,11.3,5.1,4.6,12,4.6s10.1,6.7,10.3,6.9
		c0.1,0.3,0.1,0.6,0,0.9C22.1,12.7,18.9,19.4,12,19.4z M3.8,12c0.8,1.3,3.5,5.4,8.2,5.4c4.8,0,7.5-4,8.2-5.4
		c-0.8-1.3-3.5-5.4-8.2-5.4C7.2,6.6,4.5,10.7,3.8,12z M2.6,12L2.6,12L2.6,12z"/>
</g>
<g>
	<path d="M12,14.9c-1.6,0-2.9-1.3-2.9-2.9c0-1.6,1.3-2.9,2.9-2.9c1.6,0,2.9,1.3,2.9,2.9C14.9,13.6,13.6,14.9,12,14.9z M12,11.1
		c-0.5,0-0.9,0.4-0.9,0.9s0.4,0.9,0.9,0.9s0.9-0.4,0.9-0.9S12.5,11.1,12,11.1z"/>
</g>
</svg>
