<svg version="1.1" xmlns="http://www.w3.org/2000/svg" x="0px" y="0px" width="24px" height="24px" viewBox="0 0 24 24"   >
<g>
	<path d="M22.3,11.5c-0.1-0.2-3.3-6.1-9-6.9c-0.5-0.1-1.1,0.3-1.1,0.8C12.1,6,12.4,6.5,13,6.6c3.9,0.6,6.5,4.2,7.3,5.4
		c-0.3,0.6-0.9,1.7-1.8,2.6c-0.4,0.4-0.4,1,0,1.4c0.2,0.2,0.5,0.3,0.7,0.3s0.5-0.1,0.7-0.3c1.6-1.6,2.4-3.6,2.5-3.7
		C22.4,12.1,22.4,11.8,22.3,11.5z"/>
	<path d="M6.5,2.1C6.1,1.6,5.5,1.5,5.1,1.8C4.6,2.1,4.5,2.7,4.8,3.2l2,3c-0.1,0-0.2,0-0.2,0.1c-4,2.4-4.9,5.3-4.9,5.5
		c-0.1,0.2,0,0.5,0,0.7c0,0.1,3.1,6.9,10,6.9c1.1,0,2.3-0.2,3.6-0.6l2.2,3.3c0.2,0.3,0.5,0.4,0.8,0.4c0.2,0,0.4-0.1,0.6-0.2
		c0.5-0.3,0.6-0.9,0.3-1.4L6.5,2.1z M3.7,12C4,11.3,5.1,9.5,7.6,8c0.1-0.1,0.2-0.1,0.3-0.2l1.8,2.6c-0.3,0.4-0.5,0.8-0.5,1.3
		c-0.1,0.7,0.1,1.4,0.5,2c0.4,0.6,1,1,1.7,1.2c0.2,0,0.4,0.1,0.6,0.1c0.2,0,0.5,0,0.7-0.1l1.5,2.1C7.7,18.5,4.5,13.4,3.7,12z"/>
</g>
</svg>
