<svg width="24" height="24" viewBox="0 0 24 24" fill="none" xmlns="http://www.w3.org/2000/svg">
<path d="M9.90642 6.37724C11.138 5.91868 12.486 5.87712 13.7434 6.25895C14.3776 6.45151 15.0478 6.09354 15.2403 5.45939C15.4329 4.82524 15.0749 4.15506 14.4408 3.96249C12.6803 3.42793 10.7931 3.48611 9.06895 4.1281C7.34479 4.7701 5.87909 5.96039 4.897 7.51615C3.9149 9.0719 3.47074 10.9071 3.63273 12.7397C3.79472 14.5724 4.55391 16.3012 5.79368 17.6605C7.03345 19.0199 8.68522 19.9346 10.4953 20.2642C12.3053 20.5938 14.1735 20.32 15.8128 19.485C17.4522 18.6499 18.7721 17.2997 19.5697 15.6418C20.3673 13.9838 20.5985 12.1099 20.2279 10.3078C20.0944 9.65867 19.4599 9.24066 18.8107 9.37418C18.1616 9.5077 17.7436 10.1422 17.8771 10.7913C18.1418 12.0785 17.9767 13.4171 17.4069 14.6013C16.8372 15.7855 15.8945 16.7499 14.7235 17.3464C13.5525 17.9429 12.2181 18.1385 10.9252 17.903C9.63233 17.6676 8.45249 17.0142 7.56695 16.0433C6.6814 15.0723 6.13912 13.8374 6.02341 12.5284C5.9077 11.2194 6.22496 9.90853 6.92646 8.79727C7.62795 7.68602 8.67488 6.83581 9.90642 6.37724Z" fill="#130F1C"/>
<path d="M17.8125 7.84435C18.1683 7.28522 18.0035 6.54351 17.4444 6.1877C16.8852 5.83189 16.1435 5.99672 15.7877 6.55585L11.9742 12.5485L10.411 11.1155C9.92243 10.6677 9.16335 10.7007 8.71552 11.1892C8.26769 11.6778 8.30069 12.4369 8.78924 12.8847L11.4074 15.2847C11.669 15.5245 12.0233 15.6362 12.3751 15.5898C12.7269 15.5434 13.0402 15.3437 13.2307 15.0443L17.8125 7.84435Z" fill="#130F1C"/>
</svg>
